<svg width="18" height="19" viewBox="0 0 18 19" fill="none" xmlns="http://www.w3.org/2000/svg">
<path d="M11.9864 0.893799H5.44834C2.43977 0.893799 0 3.39035 0 6.46894V13.1591C0 16.2377 2.43977 18.7343 5.44834 18.7343H11.9864C14.9949 18.7343 17.4347 16.2377 17.4347 13.1591V6.46894C17.4347 3.39035 14.9949 0.893799 11.9864 0.893799ZM15.8002 13.1591C15.8002 15.3111 14.0894 17.0617 11.9864 17.0617H5.44834C3.34528 17.0617 1.6345 15.3111 1.6345 13.1591V6.46894C1.6345 4.31694 3.34528 2.56634 5.44834 2.56634H11.9864C14.0894 2.56634 15.8002 4.31694 15.8002 6.46894V13.1591Z" fill="black"/>
<path d="M8.71722 5.35376C6.31013 5.35376 4.35852 7.35078 4.35852 9.81387C4.35852 12.277 6.31013 14.274 8.71722 14.274C11.1243 14.274 13.0759 12.277 13.0759 9.81387C13.0759 7.35078 11.1243 5.35376 8.71722 5.35376ZM8.71722 12.6014C7.21565 12.6014 5.99303 11.3504 5.99303 9.81387C5.99303 8.27625 7.21565 7.0263 8.71722 7.0263C10.2188 7.0263 11.4414 8.27625 11.4414 9.81387C11.4414 11.3504 10.2188 12.6014 8.71722 12.6014Z" fill="black"/>
<path d="M13.4028 5.61367C13.7236 5.61367 13.9836 5.34759 13.9836 5.01936C13.9836 4.69113 13.7236 4.42505 13.4028 4.42505C13.0821 4.42505 12.822 4.69113 12.822 5.01936C12.822 5.34759 13.0821 5.61367 13.4028 5.61367Z" fill="black"/>
</svg>
