<svg width="41" height="14" viewBox="0 0 41 14" fill="none" xmlns="http://www.w3.org/2000/svg">
<circle cx="39.6131" cy="1.76569" r="0.916818" transform="rotate(90 39.6131 1.76569)" fill="#E539D5"/>
<circle cx="31.999" cy="1.76569" r="0.916818" transform="rotate(90 31.999 1.76569)" fill="#E539D5"/>
<circle cx="24.3846" cy="1.76569" r="0.916818" transform="rotate(90 24.3846 1.76569)" fill="#E539D5"/>
<circle cx="16.7705" cy="1.76557" r="0.916818" transform="rotate(90 16.7705 1.76557)" fill="#E539D5"/>
<circle cx="9.15632" cy="1.76557" r="0.916818" transform="rotate(90 9.15632 1.76557)" fill="#E539D5"/>
<circle cx="1.54206" cy="1.76557" r="0.916818" transform="rotate(90 1.54206 1.76557)" fill="#E539D5"/>
<circle cx="39.6131" cy="12.2353" r="0.916818" transform="rotate(90 39.6131 12.2353)" fill="#E539D5"/>
<circle cx="31.999" cy="12.2353" r="0.916818" transform="rotate(90 31.999 12.2353)" fill="#E539D5"/>
<circle cx="24.3846" cy="12.2353" r="0.916818" transform="rotate(90 24.3846 12.2353)" fill="#E539D5"/>
<circle cx="16.7705" cy="12.2351" r="0.916818" transform="rotate(90 16.7705 12.2351)" fill="#E539D5"/>
<circle cx="9.15632" cy="12.2351" r="0.916818" transform="rotate(90 9.15632 12.2351)" fill="#E539D5"/>
<circle cx="1.54206" cy="12.2351" r="0.916818" transform="rotate(90 1.54206 12.2351)" fill="#E539D5"/>
</svg>
