<svg width="41" height="23" viewBox="0 0 41 23" fill="none" xmlns="http://www.w3.org/2000/svg">
<circle cx="39.1265" cy="0.992867" r="0.916818" transform="rotate(90 39.1265 0.992867)" fill="#E539D5"/>
<circle cx="31.5125" cy="0.992867" r="0.916818" transform="rotate(90 31.5125 0.992867)" fill="#E539D5"/>
<circle cx="23.898" cy="0.992867" r="0.916818" transform="rotate(90 23.898 0.992867)" fill="#E539D5"/>
<circle cx="16.284" cy="0.992867" r="0.916818" transform="rotate(90 16.284 0.992867)" fill="#E539D5"/>
<circle cx="8.66976" cy="0.992867" r="0.916818" transform="rotate(90 8.66976 0.992867)" fill="#E539D5"/>
<circle cx="1.0555" cy="0.992867" r="0.916818" transform="rotate(90 1.0555 0.992867)" fill="#E539D5"/>
<circle cx="39.1265" cy="11.4623" r="0.916818" transform="rotate(90 39.1265 11.4623)" fill="#E539D5"/>
<circle cx="31.5125" cy="11.4623" r="0.916818" transform="rotate(90 31.5125 11.4623)" fill="#E539D5"/>
<circle cx="23.898" cy="11.4623" r="0.916818" transform="rotate(90 23.898 11.4623)" fill="#E539D5"/>
<circle cx="16.284" cy="11.4623" r="0.916818" transform="rotate(90 16.284 11.4623)" fill="#E539D5"/>
<circle cx="8.66976" cy="11.4623" r="0.916818" transform="rotate(90 8.66976 11.4623)" fill="#E539D5"/>
<circle cx="1.0555" cy="11.4623" r="0.916818" transform="rotate(90 1.0555 11.4623)" fill="#E539D5"/>
<circle cx="39.1265" cy="21.9321" r="0.916818" transform="rotate(90 39.1265 21.9321)" fill="#E539D5"/>
<circle cx="31.5125" cy="21.9321" r="0.916818" transform="rotate(90 31.5125 21.9321)" fill="#E539D5"/>
<circle cx="23.898" cy="21.9321" r="0.916818" transform="rotate(90 23.898 21.9321)" fill="#E539D5"/>
<circle cx="16.284" cy="21.9318" r="0.916818" transform="rotate(90 16.284 21.9318)" fill="#E539D5"/>
<circle cx="8.66976" cy="21.9318" r="0.916818" transform="rotate(90 8.66976 21.9318)" fill="#E539D5"/>
<circle cx="1.0555" cy="21.9318" r="0.916818" transform="rotate(90 1.0555 21.9318)" fill="#E539D5"/>
</svg>
