<svg width="140" height="738" viewBox="0 0 140 738" xmlns="http://www.w3.org/2000/svg" fill="none"><circle cx="1.604" cy="1.364" r=".91" fill="#fff"/><circle cx="1.604" cy="13.822" r=".91" fill="#fff"/><circle cx="1.604" cy="26.279" r=".91" fill="#fff"/><circle cx="1.604" cy="38.737" r=".91" fill="#fff"/><circle cx="1.604" cy="51.195" r=".91" fill="#fff"/><circle cx="1.604" cy="63.652" r=".91" fill="#fff"/><circle cx="1.604" cy="76.11" r=".91" fill="#fff"/><circle cx="1.604" cy="88.567" r=".91" fill="#fff"/><circle cx="1.604" cy="101.025" r=".91" fill="#fff"/><circle cx="1.604" cy="113.483" r=".91" fill="#fff"/><circle cx="1.604" cy="125.94" r=".91" fill="#fff"/><circle cx="1.604" cy="138.398" r=".91" fill="#fff"/><circle cx="1.604" cy="150.855" r=".91" fill="#fff"/><circle cx="1.604" cy="163.313" r=".91" fill="#fff"/><circle cx="1.604" cy="175.771" r=".91" fill="#fff"/><circle cx="1.604" cy="188.228" r=".91" fill="#fff"/><circle cx="1.604" cy="200.686" r=".91" fill="#fff"/><circle cx="1.604" cy="213.143" r=".91" fill="#fff"/><circle cx="1.604" cy="225.601" r=".91" fill="#fff"/><circle cx="1.604" cy="238.058" r=".91" fill="#fff"/><circle cx="1.604" cy="250.516" r=".91" fill="#fff"/><circle cx="1.604" cy="262.974" r=".91" fill="#fff"/><circle cx="1.604" cy="275.431" r=".91" fill="#fff"/><circle cx="1.604" cy="287.889" r=".91" fill="#fff"/><circle cx="1.604" cy="300.346" r=".91" fill="#fff"/><circle cx="1.604" cy="312.804" r=".91" fill="#fff"/><circle cx="1.604" cy="325.261" r=".91" fill="#fff"/><circle cx="1.604" cy="337.719" r=".91" fill="#fff"/><circle cx="1.604" cy="350.177" r=".91" fill="#fff"/><circle cx="1.604" cy="362.634" r=".91" fill="#fff"/><circle cx="1.604" cy="375.092" r=".91" fill="#fff"/><circle cx="1.604" cy="387.549" r=".91" fill="#fff"/><circle cx="1.604" cy="400.007" r=".91" fill="#fff"/><circle cx="1.604" cy="412.464" r=".91" fill="#fff"/><circle cx="1.604" cy="424.922" r=".91" fill="#fff"/><circle cx="1.604" cy="437.379" r=".91" fill="#fff"/><circle cx="1.604" cy="449.837" r=".91" fill="#fff"/><circle cx="1.604" cy="462.294" r=".91" fill="#fff"/><circle cx="1.604" cy="474.752" r=".91" fill="#fff"/><circle cx="1.604" cy="487.209" r=".91" fill="#fff"/><circle cx="1.604" cy="499.667" r=".91" fill="#fff"/><circle cx="1.604" cy="512.124" r=".91" fill="#fff"/><circle cx="1.604" cy="524.582" r=".91" fill="#fff"/><circle cx="1.604" cy="537.039" r=".91" fill="#fff"/><circle cx="1.604" cy="549.497" r=".91" fill="#fff"/><circle cx="1.604" cy="561.954" r=".91" fill="#fff"/><circle cx="1.604" cy="574.412" r=".91" fill="#fff"/><circle cx="1.604" cy="586.87" r=".91" fill="#fff"/><circle cx="1.604" cy="599.327" r=".91" fill="#fff"/><circle cx="1.604" cy="611.785" r=".91" fill="#fff"/><circle cx="1.604" cy="624.242" r=".91" fill="#fff"/><circle cx="1.604" cy="636.7" r=".91" fill="#fff"/><circle cx="1.604" cy="649.157" r=".91" fill="#fff"/><circle cx="1.604" cy="661.615" r=".91" fill="#fff"/><circle cx="1.604" cy="674.072" r=".91" fill="#fff"/><circle cx="1.604" cy="686.53" r=".91" fill="#fff"/><circle cx="1.604" cy="698.987" r=".91" fill="#fff"/><circle cx="1.604" cy="711.445" r=".91" fill="#fff"/><circle cx="1.604" cy="723.902" r=".91" fill="#fff"/><circle cx="1.604" cy="736.36" r=".91" fill="#fff"/><circle cx="18.733" cy="1.364" r=".91" fill="#fff"/><circle cx="18.733" cy="13.822" r=".91" fill="#fff"/><circle cx="18.733" cy="26.279" r=".91" fill="#fff"/><circle cx="18.733" cy="38.737" r=".91" fill="#fff"/><circle cx="18.733" cy="51.195" r=".91" fill="#fff"/><circle cx="18.733" cy="63.652" r=".91" fill="#fff"/><circle cx="18.733" cy="76.11" r=".91" fill="#fff"/><circle cx="18.733" cy="88.567" r=".91" fill="#fff"/><circle cx="18.733" cy="101.025" r=".91" fill="#fff"/><circle cx="18.733" cy="113.483" r=".91" fill="#fff"/><circle cx="18.733" cy="125.94" r=".91" fill="#fff"/><circle cx="18.733" cy="138.398" r=".91" fill="#fff"/><circle cx="18.733" cy="150.855" r=".91" fill="#fff"/><circle cx="18.733" cy="163.313" r=".91" fill="#fff"/><circle cx="18.733" cy="175.771" r=".91" fill="#fff"/><circle cx="18.733" cy="188.228" r=".91" fill="#fff"/><circle cx="18.733" cy="200.686" r=".91" fill="#fff"/><circle cx="18.733" cy="213.143" r=".91" fill="#fff"/><circle cx="18.733" cy="225.601" r=".91" fill="#fff"/><circle cx="18.733" cy="238.058" r=".91" fill="#fff"/><circle cx="18.733" cy="250.516" r=".91" fill="#fff"/><circle cx="18.733" cy="262.974" r=".91" fill="#fff"/><circle cx="18.733" cy="275.431" r=".91" fill="#fff"/><circle cx="18.733" cy="287.889" r=".91" fill="#fff"/><circle cx="18.733" cy="300.346" r=".91" fill="#fff"/><circle cx="18.733" cy="312.804" r=".91" fill="#fff"/><circle cx="18.733" cy="325.261" r=".91" fill="#fff"/><circle cx="18.733" cy="337.719" r=".91" fill="#fff"/><circle cx="18.733" cy="350.177" r=".91" fill="#fff"/><circle cx="18.733" cy="362.634" r=".91" fill="#fff"/><circle cx="18.733" cy="375.092" r=".91" fill="#fff"/><circle cx="18.733" cy="387.549" r=".91" fill="#fff"/><circle cx="18.733" cy="400.007" r=".91" fill="#fff"/><circle cx="18.733" cy="412.464" r=".91" fill="#fff"/><circle cx="18.733" cy="424.922" r=".91" fill="#fff"/><circle cx="18.733" cy="437.379" r=".91" fill="#fff"/><circle cx="18.733" cy="449.837" r=".91" fill="#fff"/><circle cx="18.733" cy="462.294" r=".91" fill="#fff"/><circle cx="18.733" cy="474.752" r=".91" fill="#fff"/><circle cx="18.733" cy="487.209" r=".91" fill="#fff"/><circle cx="18.733" cy="499.667" r=".91" fill="#fff"/><circle cx="18.733" cy="512.124" r=".91" fill="#fff"/><circle cx="18.733" cy="524.582" r=".91" fill="#fff"/><circle cx="18.733" cy="537.039" r=".91" fill="#fff"/><circle cx="18.733" cy="549.497" r=".91" fill="#fff"/><circle cx="18.733" cy="561.954" r=".91" fill="#fff"/><circle cx="18.733" cy="574.412" r=".91" fill="#fff"/><circle cx="18.733" cy="586.87" r=".91" fill="#fff"/><circle cx="18.733" cy="599.327" r=".91" fill="#fff"/><circle cx="18.733" cy="611.785" r=".91" fill="#fff"/><circle cx="18.733" cy="624.242" r=".91" fill="#fff"/><circle cx="18.733" cy="636.7" r=".91" fill="#fff"/><circle cx="18.733" cy="649.157" r=".91" fill="#fff"/><circle cx="18.733" cy="661.615" r=".91" fill="#fff"/><circle cx="18.733" cy="674.072" r=".91" fill="#fff"/><circle cx="18.733" cy="686.53" r=".91" fill="#fff"/><circle cx="18.733" cy="698.987" r=".91" fill="#fff"/><circle cx="18.733" cy="711.445" r=".91" fill="#fff"/><circle cx="18.733" cy="723.902" r=".91" fill="#fff"/><circle cx="18.733" cy="736.36" r=".91" fill="#fff"/><circle cx="35.862" cy="1.364" r=".91" fill="#fff"/><circle cx="35.862" cy="13.822" r=".91" fill="#fff"/><circle cx="35.862" cy="26.279" r=".91" fill="#fff"/><circle cx="35.862" cy="38.737" r=".91" fill="#fff"/><circle cx="35.862" cy="51.195" r=".91" fill="#fff"/><circle cx="35.862" cy="63.652" r=".91" fill="#fff"/><circle cx="35.862" cy="76.11" r=".91" fill="#fff"/><circle cx="35.862" cy="88.567" r=".91" fill="#fff"/><circle cx="35.862" cy="101.025" r=".91" fill="#fff"/><circle cx="35.862" cy="113.483" r=".91" fill="#fff"/><circle cx="35.862" cy="125.94" r=".91" fill="#fff"/><circle cx="35.862" cy="138.398" r=".91" fill="#fff"/><circle cx="35.862" cy="150.855" r=".91" fill="#fff"/><circle cx="35.862" cy="163.313" r=".91" fill="#fff"/><circle cx="35.862" cy="175.771" r=".91" fill="#fff"/><circle cx="35.862" cy="188.228" r=".91" fill="#fff"/><circle cx="35.862" cy="200.686" r=".91" fill="#fff"/><circle cx="35.862" cy="213.143" r=".91" fill="#fff"/><circle cx="35.862" cy="225.601" r=".91" fill="#fff"/><circle cx="35.862" cy="238.058" r=".91" fill="#fff"/><circle cx="35.862" cy="250.516" r=".91" fill="#fff"/><circle cx="35.862" cy="262.974" r=".91" fill="#fff"/><circle cx="35.862" cy="275.431" r=".91" fill="#fff"/><circle cx="35.862" cy="287.889" r=".91" fill="#fff"/><circle cx="35.862" cy="300.346" r=".91" fill="#fff"/><circle cx="35.862" cy="312.804" r=".91" fill="#fff"/><circle cx="35.862" cy="325.261" r=".91" fill="#fff"/><circle cx="35.862" cy="337.719" r=".91" fill="#fff"/><circle cx="35.862" cy="350.177" r=".91" fill="#fff"/><circle cx="35.862" cy="362.634" r=".91" fill="#fff"/><circle cx="35.862" cy="375.092" r=".91" fill="#fff"/><circle cx="35.862" cy="387.549" r=".91" fill="#fff"/><circle cx="35.862" cy="400.007" r=".91" fill="#fff"/><circle cx="35.862" cy="412.464" r=".91" fill="#fff"/><circle cx="35.862" cy="424.922" r=".91" fill="#fff"/><circle cx="35.862" cy="437.379" r=".91" fill="#fff"/><circle cx="35.862" cy="449.837" r=".91" fill="#fff"/><circle cx="35.862" cy="462.294" r=".91" fill="#fff"/><circle cx="35.862" cy="474.752" r=".91" fill="#fff"/><circle cx="35.862" cy="487.209" r=".91" fill="#fff"/><circle cx="35.862" cy="499.667" r=".91" fill="#fff"/><circle cx="35.862" cy="512.124" r=".91" fill="#fff"/><circle cx="35.862" cy="524.582" r=".91" fill="#fff"/><circle cx="35.862" cy="537.039" r=".91" fill="#fff"/><circle cx="35.862" cy="549.497" r=".91" fill="#fff"/><circle cx="35.862" cy="561.954" r=".91" fill="#fff"/><circle cx="35.862" cy="574.412" r=".91" fill="#fff"/><circle cx="35.862" cy="586.87" r=".91" fill="#fff"/><circle cx="35.862" cy="599.327" r=".91" fill="#fff"/><circle cx="35.862" cy="611.785" r=".91" fill="#fff"/><circle cx="35.862" cy="624.242" r=".91" fill="#fff"/><circle cx="35.862" cy="636.7" r=".91" fill="#fff"/><circle cx="35.862" cy="649.157" r=".91" fill="#fff"/><circle cx="35.862" cy="661.615" r=".91" fill="#fff"/><circle cx="35.862" cy="674.072" r=".91" fill="#fff"/><circle cx="35.862" cy="686.53" r=".91" fill="#fff"/><circle cx="35.862" cy="698.987" r=".91" fill="#fff"/><circle cx="35.862" cy="711.445" r=".91" fill="#fff"/><circle cx="35.862" cy="723.902" r=".91" fill="#fff"/><circle cx="35.862" cy="736.36" r=".91" fill="#fff"/><circle cx="52.992" cy="1.364" r=".91" fill="#fff"/><circle cx="52.992" cy="13.822" r=".91" fill="#fff"/><circle cx="52.992" cy="26.279" r=".91" fill="#fff"/><circle cx="52.992" cy="38.737" r=".91" fill="#fff"/><circle cx="52.992" cy="51.195" r=".91" fill="#fff"/><circle cx="52.992" cy="63.652" r=".91" fill="#fff"/><circle cx="52.992" cy="76.11" r=".91" fill="#fff"/><circle cx="52.992" cy="88.567" r=".91" fill="#fff"/><circle cx="52.992" cy="101.025" r=".91" fill="#fff"/><circle cx="52.992" cy="113.483" r=".91" fill="#fff"/><circle cx="52.992" cy="125.94" r=".91" fill="#fff"/><circle cx="52.992" cy="138.398" r=".91" fill="#fff"/><circle cx="52.992" cy="150.855" r=".91" fill="#fff"/><circle cx="52.992" cy="163.313" r=".91" fill="#fff"/><circle cx="52.992" cy="175.771" r=".91" fill="#fff"/><circle cx="52.992" cy="188.228" r=".91" fill="#fff"/><circle cx="52.992" cy="200.686" r=".91" fill="#fff"/><circle cx="52.992" cy="213.143" r=".91" fill="#fff"/><circle cx="52.992" cy="225.601" r=".91" fill="#fff"/><circle cx="52.992" cy="238.058" r=".91" fill="#fff"/><circle cx="52.992" cy="250.516" r=".91" fill="#fff"/><circle cx="52.992" cy="262.974" r=".91" fill="#fff"/><circle cx="52.992" cy="275.431" r=".91" fill="#fff"/><circle cx="52.992" cy="287.889" r=".91" fill="#fff"/><circle cx="52.992" cy="300.346" r=".91" fill="#fff"/><circle cx="52.992" cy="312.804" r=".91" fill="#fff"/><circle cx="52.992" cy="325.261" r=".91" fill="#fff"/><circle cx="52.992" cy="337.719" r=".91" fill="#fff"/><circle cx="52.992" cy="350.177" r=".91" fill="#fff"/><circle cx="52.992" cy="362.634" r=".91" fill="#fff"/><circle cx="52.992" cy="375.092" r=".91" fill="#fff"/><circle cx="52.992" cy="387.549" r=".91" fill="#fff"/><circle cx="52.992" cy="400.007" r=".91" fill="#fff"/><circle cx="52.992" cy="412.464" r=".91" fill="#fff"/><circle cx="52.992" cy="424.922" r=".91" fill="#fff"/><circle cx="52.992" cy="437.379" r=".91" fill="#fff"/><circle cx="52.992" cy="449.837" r=".91" fill="#fff"/><circle cx="52.992" cy="462.294" r=".91" fill="#fff"/><circle cx="52.992" cy="474.752" r=".91" fill="#fff"/><circle cx="52.992" cy="487.209" r=".91" fill="#fff"/><circle cx="52.992" cy="499.667" r=".91" fill="#fff"/><circle cx="52.992" cy="512.124" r=".91" fill="#fff"/><circle cx="52.992" cy="524.582" r=".91" fill="#fff"/><circle cx="52.992" cy="537.039" r=".91" fill="#fff"/><circle cx="52.992" cy="549.497" r=".91" fill="#fff"/><circle cx="52.992" cy="561.954" r=".91" fill="#fff"/><circle cx="52.992" cy="574.412" r=".91" fill="#fff"/><circle cx="52.992" cy="586.87" r=".91" fill="#fff"/><circle cx="52.992" cy="599.327" r=".91" fill="#fff"/><circle cx="52.992" cy="611.785" r=".91" fill="#fff"/><circle cx="52.992" cy="624.242" r=".91" fill="#fff"/><circle cx="52.992" cy="636.7" r=".91" fill="#fff"/><circle cx="52.992" cy="649.157" r=".91" fill="#fff"/><circle cx="52.992" cy="661.615" r=".91" fill="#fff"/><circle cx="52.992" cy="674.072" r=".91" fill="#fff"/><circle cx="52.992" cy="686.53" r=".91" fill="#fff"/><circle cx="52.992" cy="698.987" r=".91" fill="#fff"/><circle cx="52.992" cy="711.445" r=".91" fill="#fff"/><circle cx="52.992" cy="723.902" r=".91" fill="#fff"/><circle cx="52.992" cy="736.36" r=".91" fill="#fff"/><circle cx="70.121" cy="1.364" r=".91" fill="#fff"/><circle cx="70.121" cy="13.822" r=".91" fill="#fff"/><circle cx="70.121" cy="26.279" r=".91" fill="#fff"/><circle cx="70.121" cy="38.737" r=".91" fill="#fff"/><circle cx="70.121" cy="51.195" r=".91" fill="#fff"/><circle cx="70.121" cy="63.652" r=".91" fill="#fff"/><circle cx="70.121" cy="76.11" r=".91" fill="#fff"/><circle cx="70.121" cy="88.567" r=".91" fill="#fff"/><circle cx="70.121" cy="101.025" r=".91" fill="#fff"/><circle cx="70.121" cy="113.483" r=".91" fill="#fff"/><circle cx="70.121" cy="125.94" r=".91" fill="#fff"/><circle cx="70.121" cy="138.398" r=".91" fill="#fff"/><circle cx="70.121" cy="150.855" r=".91" fill="#fff"/><circle cx="70.121" cy="163.313" r=".91" fill="#fff"/><circle cx="70.121" cy="175.771" r=".91" fill="#fff"/><circle cx="70.121" cy="188.228" r=".91" fill="#fff"/><circle cx="70.121" cy="200.686" r=".91" fill="#fff"/><circle cx="70.121" cy="213.143" r=".91" fill="#fff"/><circle cx="70.121" cy="225.601" r=".91" fill="#fff"/><circle cx="70.121" cy="238.058" r=".91" fill="#fff"/><circle cx="70.121" cy="250.516" r=".91" fill="#fff"/><circle cx="70.121" cy="262.974" r=".91" fill="#fff"/><circle cx="70.121" cy="275.431" r=".91" fill="#fff"/><circle cx="70.121" cy="287.889" r=".91" fill="#fff"/><circle cx="70.121" cy="300.346" r=".91" fill="#fff"/><circle cx="70.121" cy="312.804" r=".91" fill="#fff"/><circle cx="70.121" cy="325.261" r=".91" fill="#fff"/><circle cx="70.121" cy="337.719" r=".91" fill="#fff"/><circle cx="70.121" cy="350.177" r=".91" fill="#fff"/><circle cx="70.121" cy="362.634" r=".91" fill="#fff"/><circle cx="70.121" cy="375.092" r=".91" fill="#fff"/><circle cx="70.121" cy="387.549" r=".91" fill="#fff"/><circle cx="70.121" cy="400.007" r=".91" fill="#fff"/><circle cx="70.121" cy="412.464" r=".91" fill="#fff"/><circle cx="70.121" cy="424.922" r=".91" fill="#fff"/><circle cx="70.121" cy="437.379" r=".91" fill="#fff"/><circle cx="70.121" cy="449.837" r=".91" fill="#fff"/><circle cx="70.121" cy="462.294" r=".91" fill="#fff"/><circle cx="70.121" cy="474.752" r=".91" fill="#fff"/><circle cx="70.121" cy="487.209" r=".91" fill="#fff"/><circle cx="70.121" cy="499.667" r=".91" fill="#fff"/><circle cx="70.121" cy="512.124" r=".91" fill="#fff"/><circle cx="70.121" cy="524.582" r=".91" fill="#fff"/><circle cx="70.121" cy="537.039" r=".91" fill="#fff"/><circle cx="70.121" cy="549.497" r=".91" fill="#fff"/><circle cx="70.121" cy="561.954" r=".91" fill="#fff"/><circle cx="70.121" cy="574.412" r=".91" fill="#fff"/><circle cx="70.121" cy="586.87" r=".91" fill="#fff"/><circle cx="70.121" cy="599.327" r=".91" fill="#fff"/><circle cx="70.121" cy="611.785" r=".91" fill="#fff"/><circle cx="70.121" cy="624.242" r=".91" fill="#fff"/><circle cx="70.121" cy="636.7" r=".91" fill="#fff"/><circle cx="70.121" cy="649.157" r=".91" fill="#fff"/><circle cx="70.121" cy="661.615" r=".91" fill="#fff"/><circle cx="70.121" cy="674.072" r=".91" fill="#fff"/><circle cx="70.121" cy="686.53" r=".91" fill="#fff"/><circle cx="70.121" cy="698.987" r=".91" fill="#fff"/><circle cx="70.121" cy="711.445" r=".91" fill="#fff"/><circle cx="70.121" cy="723.902" r=".91" fill="#fff"/><circle cx="70.121" cy="736.36" r=".91" fill="#fff"/><circle cx="87.25" cy="1.364" r=".91" fill="#fff"/><circle cx="87.25" cy="13.822" r=".91" fill="#fff"/><circle cx="87.25" cy="26.279" r=".91" fill="#fff"/><circle cx="87.25" cy="38.737" r=".91" fill="#fff"/><circle cx="87.25" cy="51.195" r=".91" fill="#fff"/><circle cx="87.25" cy="63.652" r=".91" fill="#fff"/><circle cx="87.25" cy="76.11" r=".91" fill="#fff"/><circle cx="87.25" cy="88.567" r=".91" fill="#fff"/><circle cx="87.25" cy="101.025" r=".91" fill="#fff"/><circle cx="87.25" cy="113.483" r=".91" fill="#fff"/><circle cx="87.25" cy="125.94" r=".91" fill="#fff"/><circle cx="87.25" cy="138.398" r=".91" fill="#fff"/><circle cx="87.25" cy="150.855" r=".91" fill="#fff"/><circle cx="87.25" cy="163.313" r=".91" fill="#fff"/><circle cx="87.25" cy="175.771" r=".91" fill="#fff"/><circle cx="87.25" cy="188.228" r=".91" fill="#fff"/><circle cx="87.25" cy="200.686" r=".91" fill="#fff"/><circle cx="87.25" cy="213.143" r=".91" fill="#fff"/><circle cx="87.25" cy="225.601" r=".91" fill="#fff"/><circle cx="87.25" cy="238.058" r=".91" fill="#fff"/><circle cx="87.25" cy="250.516" r=".91" fill="#fff"/><circle cx="87.25" cy="262.974" r=".91" fill="#fff"/><circle cx="87.25" cy="275.431" r=".91" fill="#fff"/><circle cx="87.25" cy="287.889" r=".91" fill="#fff"/><circle cx="87.25" cy="300.346" r=".91" fill="#fff"/><circle cx="87.25" cy="312.804" r=".91" fill="#fff"/><circle cx="87.25" cy="325.261" r=".91" fill="#fff"/><circle cx="87.25" cy="337.719" r=".91" fill="#fff"/><circle cx="87.25" cy="350.177" r=".91" fill="#fff"/><circle cx="87.25" cy="362.634" r=".91" fill="#fff"/><circle cx="87.25" cy="375.092" r=".91" fill="#fff"/><circle cx="87.25" cy="387.549" r=".91" fill="#fff"/><circle cx="87.25" cy="400.007" r=".91" fill="#fff"/><circle cx="87.25" cy="412.464" r=".91" fill="#fff"/><circle cx="87.25" cy="424.922" r=".91" fill="#fff"/><circle cx="87.25" cy="437.379" r=".91" fill="#fff"/><circle cx="87.25" cy="449.837" r=".91" fill="#fff"/><circle cx="87.25" cy="462.294" r=".91" fill="#fff"/><circle cx="87.25" cy="474.752" r=".91" fill="#fff"/><circle cx="87.25" cy="487.209" r=".91" fill="#fff"/><circle cx="87.25" cy="499.667" r=".91" fill="#fff"/><circle cx="87.25" cy="512.124" r=".91" fill="#fff"/><circle cx="87.25" cy="524.582" r=".91" fill="#fff"/><circle cx="87.25" cy="537.039" r=".91" fill="#fff"/><circle cx="87.25" cy="549.497" r=".91" fill="#fff"/><circle cx="87.25" cy="561.954" r=".91" fill="#fff"/><circle cx="87.25" cy="574.412" r=".91" fill="#fff"/><circle cx="87.25" cy="586.87" r=".91" fill="#fff"/><circle cx="87.25" cy="599.327" r=".91" fill="#fff"/><circle cx="87.25" cy="611.785" r=".91" fill="#fff"/><circle cx="87.25" cy="624.242" r=".91" fill="#fff"/><circle cx="87.25" cy="636.7" r=".91" fill="#fff"/><circle cx="87.25" cy="649.157" r=".91" fill="#fff"/><circle cx="87.25" cy="661.615" r=".91" fill="#fff"/><circle cx="87.25" cy="674.072" r=".91" fill="#fff"/><circle cx="87.25" cy="686.53" r=".91" fill="#fff"/><circle cx="87.25" cy="698.987" r=".91" fill="#fff"/><circle cx="87.25" cy="711.445" r=".91" fill="#fff"/><circle cx="87.25" cy="723.902" r=".91" fill="#fff"/><circle cx="87.25" cy="736.36" r=".91" fill="#fff"/><circle cx="104.379" cy="1.364" r=".91" fill="#fff"/><circle cx="104.379" cy="13.822" r=".91" fill="#fff"/><circle cx="104.379" cy="26.279" r=".91" fill="#fff"/><circle cx="104.379" cy="38.737" r=".91" fill="#fff"/><circle cx="104.379" cy="51.195" r=".91" fill="#fff"/><circle cx="104.379" cy="63.652" r=".91" fill="#fff"/><circle cx="104.379" cy="76.11" r=".91" fill="#fff"/><circle cx="104.379" cy="88.567" r=".91" fill="#fff"/><circle cx="104.379" cy="101.025" r=".91" fill="#fff"/><circle cx="104.379" cy="113.483" r=".91" fill="#fff"/><circle cx="104.379" cy="125.94" r=".91" fill="#fff"/><circle cx="104.379" cy="138.398" r=".91" fill="#fff"/><circle cx="104.379" cy="150.855" r=".91" fill="#fff"/><circle cx="104.379" cy="163.313" r=".91" fill="#fff"/><circle cx="104.379" cy="175.771" r=".91" fill="#fff"/><circle cx="104.379" cy="188.228" r=".91" fill="#fff"/><circle cx="104.379" cy="200.686" r=".91" fill="#fff"/><circle cx="104.379" cy="213.143" r=".91" fill="#fff"/><circle cx="104.379" cy="225.601" r=".91" fill="#fff"/><circle cx="104.379" cy="238.058" r=".91" fill="#fff"/><circle cx="104.379" cy="250.516" r=".91" fill="#fff"/><circle cx="104.379" cy="262.974" r=".91" fill="#fff"/><circle cx="104.379" cy="275.431" r=".91" fill="#fff"/><circle cx="104.379" cy="287.889" r=".91" fill="#fff"/><circle cx="104.379" cy="300.346" r=".91" fill="#fff"/><circle cx="104.379" cy="312.804" r=".91" fill="#fff"/><circle cx="104.379" cy="325.261" r=".91" fill="#fff"/><circle cx="104.379" cy="337.719" r=".91" fill="#fff"/><circle cx="104.379" cy="350.177" r=".91" fill="#fff"/><circle cx="104.379" cy="362.634" r=".91" fill="#fff"/><circle cx="104.379" cy="375.092" r=".91" fill="#fff"/><circle cx="104.379" cy="387.549" r=".91" fill="#fff"/><circle cx="104.379" cy="400.007" r=".91" fill="#fff"/><circle cx="104.379" cy="412.464" r=".91" fill="#fff"/><circle cx="104.379" cy="424.922" r=".91" fill="#fff"/><circle cx="104.379" cy="437.379" r=".91" fill="#fff"/><circle cx="104.379" cy="449.837" r=".91" fill="#fff"/><circle cx="104.379" cy="462.294" r=".91" fill="#fff"/><circle cx="104.379" cy="474.752" r=".91" fill="#fff"/><circle cx="104.379" cy="487.209" r=".91" fill="#fff"/><circle cx="104.379" cy="499.667" r=".91" fill="#fff"/><circle cx="104.379" cy="512.124" r=".91" fill="#fff"/><circle cx="104.379" cy="524.582" r=".91" fill="#fff"/><circle cx="104.379" cy="537.039" r=".91" fill="#fff"/><circle cx="104.379" cy="549.497" r=".91" fill="#fff"/><circle cx="104.379" cy="561.954" r=".91" fill="#fff"/><circle cx="104.379" cy="574.412" r=".91" fill="#fff"/><circle cx="104.379" cy="586.87" r=".91" fill="#fff"/><circle cx="104.379" cy="599.327" r=".91" fill="#fff"/><circle cx="104.379" cy="611.785" r=".91" fill="#fff"/><circle cx="104.379" cy="624.242" r=".91" fill="#fff"/><circle cx="104.379" cy="636.7" r=".91" fill="#fff"/><circle cx="104.379" cy="649.157" r=".91" fill="#fff"/><circle cx="104.379" cy="661.615" r=".91" fill="#fff"/><circle cx="104.379" cy="674.072" r=".91" fill="#fff"/><circle cx="104.379" cy="686.53" r=".91" fill="#fff"/><circle cx="104.379" cy="698.987" r=".91" fill="#fff"/><circle cx="104.379" cy="711.445" r=".91" fill="#fff"/><circle cx="104.379" cy="723.902" r=".91" fill="#fff"/><circle cx="104.379" cy="736.36" r=".91" fill="#fff"/><circle cx="121.508" cy="1.364" r=".91" fill="#fff"/><circle cx="121.508" cy="13.822" r=".91" fill="#fff"/><circle cx="121.508" cy="26.279" r=".91" fill="#fff"/><circle cx="121.508" cy="38.737" r=".91" fill="#fff"/><circle cx="121.508" cy="51.195" r=".91" fill="#fff"/><circle cx="121.508" cy="63.652" r=".91" fill="#fff"/><circle cx="121.508" cy="76.11" r=".91" fill="#fff"/><circle cx="121.508" cy="88.567" r=".91" fill="#fff"/><circle cx="121.508" cy="101.025" r=".91" fill="#fff"/><circle cx="121.508" cy="113.483" r=".91" fill="#fff"/><circle cx="121.508" cy="125.94" r=".91" fill="#fff"/><circle cx="121.508" cy="138.398" r=".91" fill="#fff"/><circle cx="121.508" cy="150.855" r=".91" fill="#fff"/><circle cx="121.508" cy="163.313" r=".91" fill="#fff"/><circle cx="121.508" cy="175.771" r=".91" fill="#fff"/><circle cx="121.508" cy="188.228" r=".91" fill="#fff"/><circle cx="121.508" cy="200.686" r=".91" fill="#fff"/><circle cx="121.508" cy="213.143" r=".91" fill="#fff"/><circle cx="121.508" cy="225.601" r=".91" fill="#fff"/><circle cx="121.508" cy="238.058" r=".91" fill="#fff"/><circle cx="121.508" cy="250.516" r=".91" fill="#fff"/><circle cx="121.508" cy="262.974" r=".91" fill="#fff"/><circle cx="121.508" cy="275.431" r=".91" fill="#fff"/><circle cx="121.508" cy="287.889" r=".91" fill="#fff"/><circle cx="121.508" cy="300.346" r=".91" fill="#fff"/><circle cx="121.508" cy="312.804" r=".91" fill="#fff"/><circle cx="121.508" cy="325.261" r=".91" fill="#fff"/><circle cx="121.508" cy="337.719" r=".91" fill="#fff"/><circle cx="121.508" cy="350.177" r=".91" fill="#fff"/><circle cx="121.508" cy="362.634" r=".91" fill="#fff"/><circle cx="121.508" cy="375.092" r=".91" fill="#fff"/><circle cx="121.508" cy="387.549" r=".91" fill="#fff"/><circle cx="121.508" cy="400.007" r=".91" fill="#fff"/><circle cx="121.508" cy="412.464" r=".91" fill="#fff"/><circle cx="121.508" cy="424.922" r=".91" fill="#fff"/><circle cx="121.508" cy="437.379" r=".91" fill="#fff"/><circle cx="121.508" cy="449.837" r=".91" fill="#fff"/><circle cx="121.508" cy="462.294" r=".91" fill="#fff"/><circle cx="121.508" cy="474.752" r=".91" fill="#fff"/><circle cx="121.508" cy="487.209" r=".91" fill="#fff"/><circle cx="121.508" cy="499.667" r=".91" fill="#fff"/><circle cx="121.508" cy="512.124" r=".91" fill="#fff"/><circle cx="121.508" cy="524.582" r=".91" fill="#fff"/><circle cx="121.508" cy="537.039" r=".91" fill="#fff"/><circle cx="121.508" cy="549.497" r=".91" fill="#fff"/><circle cx="121.508" cy="561.954" r=".91" fill="#fff"/><circle cx="121.508" cy="574.412" r=".91" fill="#fff"/><circle cx="121.508" cy="586.87" r=".91" fill="#fff"/><circle cx="121.508" cy="599.327" r=".91" fill="#fff"/><circle cx="121.508" cy="611.785" r=".91" fill="#fff"/><circle cx="121.508" cy="624.242" r=".91" fill="#fff"/><circle cx="121.508" cy="636.7" r=".91" fill="#fff"/><circle cx="121.508" cy="649.157" r=".91" fill="#fff"/><circle cx="121.508" cy="661.615" r=".91" fill="#fff"/><circle cx="121.508" cy="674.072" r=".91" fill="#fff"/><circle cx="121.508" cy="686.53" r=".91" fill="#fff"/><circle cx="121.508" cy="698.987" r=".91" fill="#fff"/><circle cx="121.508" cy="711.445" r=".91" fill="#fff"/><circle cx="121.508" cy="723.902" r=".91" fill="#fff"/><circle cx="121.508" cy="736.36" r=".91" fill="#fff"/><circle cx="138.637" cy="1.364" r=".91" fill="#fff"/><circle cx="138.637" cy="13.822" r=".91" fill="#fff"/><circle cx="138.637" cy="26.279" r=".91" fill="#fff"/><circle cx="138.637" cy="38.737" r=".91" fill="#fff"/><circle cx="138.637" cy="51.195" r=".91" fill="#fff"/><circle cx="138.637" cy="63.652" r=".91" fill="#fff"/><circle cx="138.637" cy="76.11" r=".91" fill="#fff"/><circle cx="138.637" cy="88.567" r=".91" fill="#fff"/><circle cx="138.637" cy="101.025" r=".91" fill="#fff"/><circle cx="138.637" cy="113.483" r=".91" fill="#fff"/><circle cx="138.637" cy="125.94" r=".91" fill="#fff"/><circle cx="138.637" cy="138.398" r=".91" fill="#fff"/><circle cx="138.637" cy="150.855" r=".91" fill="#fff"/><circle cx="138.637" cy="163.313" r=".91" fill="#fff"/><circle cx="138.637" cy="175.771" r=".91" fill="#fff"/><circle cx="138.637" cy="188.228" r=".91" fill="#fff"/><circle cx="138.637" cy="200.686" r=".91" fill="#fff"/><circle cx="138.637" cy="213.143" r=".91" fill="#fff"/><circle cx="138.637" cy="225.601" r=".91" fill="#fff"/><circle cx="138.637" cy="238.058" r=".91" fill="#fff"/><circle cx="138.637" cy="250.516" r=".91" fill="#fff"/><circle cx="138.637" cy="262.974" r=".91" fill="#fff"/><circle cx="138.637" cy="275.431" r=".91" fill="#fff"/><circle cx="138.637" cy="287.889" r=".91" fill="#fff"/><circle cx="138.637" cy="300.346" r=".91" fill="#fff"/><circle cx="138.637" cy="312.804" r=".91" fill="#fff"/><circle cx="138.637" cy="325.261" r=".91" fill="#fff"/><circle cx="138.637" cy="337.719" r=".91" fill="#fff"/><circle cx="138.637" cy="350.177" r=".91" fill="#fff"/><circle cx="138.637" cy="362.634" r=".91" fill="#fff"/><circle cx="138.637" cy="375.092" r=".91" fill="#fff"/><circle cx="138.637" cy="387.549" r=".91" fill="#fff"/><circle cx="138.637" cy="400.007" r=".91" fill="#fff"/><circle cx="138.637" cy="412.464" r=".91" fill="#fff"/><circle cx="138.637" cy="424.922" r=".91" fill="#fff"/><circle cx="138.637" cy="437.379" r=".91" fill="#fff"/><circle cx="138.637" cy="449.837" r=".91" fill="#fff"/><circle cx="138.637" cy="462.294" r=".91" fill="#fff"/><circle cx="138.637" cy="474.752" r=".91" fill="#fff"/><circle cx="138.637" cy="487.209" r=".91" fill="#fff"/><circle cx="138.637" cy="499.667" r=".91" fill="#fff"/><circle cx="138.637" cy="512.124" r=".91" fill="#fff"/><circle cx="138.637" cy="524.582" r=".91" fill="#fff"/><circle cx="138.637" cy="537.039" r=".91" fill="#fff"/><circle cx="138.637" cy="549.497" r=".91" fill="#fff"/><circle cx="138.637" cy="561.954" r=".91" fill="#fff"/><circle cx="138.637" cy="574.412" r=".91" fill="#fff"/><circle cx="138.637" cy="586.87" r=".91" fill="#fff"/><circle cx="138.637" cy="599.327" r=".91" fill="#fff"/><circle cx="138.637" cy="611.785" r=".91" fill="#fff"/><circle cx="138.637" cy="624.242" r=".91" fill="#fff"/><circle cx="138.637" cy="636.7" r=".91" fill="#fff"/><circle cx="138.637" cy="649.157" r=".91" fill="#fff"/><circle cx="138.637" cy="661.615" r=".91" fill="#fff"/><circle cx="138.637" cy="674.072" r=".91" fill="#fff"/><circle cx="138.637" cy="686.53" r=".91" fill="#fff"/><circle cx="138.637" cy="698.987" r=".91" fill="#fff"/><circle cx="138.637" cy="711.445" r=".91" fill="#fff"/><circle cx="138.637" cy="723.902" r=".91" fill="#fff"/><circle cx="138.637" cy="736.36" r=".91" fill="#fff"/></svg>