<svg width="140" height="127" viewBox="0 0 140 127" fill="none" xmlns="http://www.w3.org/2000/svg">
<circle cx="1.41027" cy="1.44494" r="0.910274" fill="white"/>
<circle cx="1.41027" cy="13.9025" r="0.910274" fill="white"/>
<circle cx="1.41027" cy="26.3601" r="0.910274" fill="white"/>
<circle cx="1.41027" cy="38.8177" r="0.910274" fill="white"/>
<circle cx="1.41027" cy="51.2753" r="0.910274" fill="white"/>
<circle cx="1.41027" cy="63.7328" r="0.910274" fill="white"/>
<circle cx="1.41027" cy="76.1904" r="0.910274" fill="white"/>
<circle cx="1.41027" cy="88.648" r="0.910274" fill="white"/>
<circle cx="1.41027" cy="101.106" r="0.910274" fill="white"/>
<circle cx="1.41027" cy="113.563" r="0.910274" fill="white"/>
<circle cx="1.41027" cy="126.021" r="0.910274" fill="white"/>
<circle cx="18.5394" cy="1.44494" r="0.910274" fill="white"/>
<circle cx="18.5394" cy="13.9025" r="0.910274" fill="white"/>
<circle cx="18.5394" cy="26.3601" r="0.910274" fill="white"/>
<circle cx="18.5394" cy="38.8177" r="0.910274" fill="white"/>
<circle cx="18.5394" cy="51.2753" r="0.910274" fill="white"/>
<circle cx="18.5394" cy="63.7328" r="0.910274" fill="white"/>
<circle cx="18.5394" cy="76.1904" r="0.910274" fill="white"/>
<circle cx="18.5394" cy="88.648" r="0.910274" fill="white"/>
<circle cx="18.5394" cy="101.106" r="0.910274" fill="white"/>
<circle cx="18.5394" cy="113.563" r="0.910274" fill="white"/>
<circle cx="18.5394" cy="126.021" r="0.910274" fill="white"/>
<circle cx="35.6686" cy="1.44494" r="0.910274" fill="white"/>
<circle cx="35.6686" cy="13.9025" r="0.910274" fill="white"/>
<circle cx="35.6686" cy="26.3601" r="0.910274" fill="white"/>
<circle cx="35.6686" cy="38.8177" r="0.910274" fill="white"/>
<circle cx="35.6686" cy="51.2753" r="0.910274" fill="white"/>
<circle cx="35.6686" cy="63.7328" r="0.910274" fill="white"/>
<circle cx="35.6686" cy="76.1904" r="0.910274" fill="white"/>
<circle cx="35.6686" cy="88.648" r="0.910274" fill="white"/>
<circle cx="35.6686" cy="101.106" r="0.910274" fill="white"/>
<circle cx="35.6686" cy="113.563" r="0.910274" fill="white"/>
<circle cx="35.6686" cy="126.021" r="0.910274" fill="white"/>
<circle cx="52.7977" cy="1.44494" r="0.910274" fill="white"/>
<circle cx="52.7977" cy="13.9025" r="0.910274" fill="white"/>
<circle cx="52.7977" cy="26.3601" r="0.910274" fill="white"/>
<circle cx="52.7977" cy="38.8177" r="0.910274" fill="white"/>
<circle cx="52.7977" cy="51.2753" r="0.910274" fill="white"/>
<circle cx="52.7977" cy="63.7328" r="0.910274" fill="white"/>
<circle cx="52.7977" cy="76.1904" r="0.910274" fill="white"/>
<circle cx="52.7977" cy="88.648" r="0.910274" fill="white"/>
<circle cx="52.7977" cy="101.106" r="0.910274" fill="white"/>
<circle cx="52.7977" cy="113.563" r="0.910274" fill="white"/>
<circle cx="52.7977" cy="126.021" r="0.910274" fill="white"/>
<circle cx="69.9269" cy="1.44494" r="0.910274" fill="white"/>
<circle cx="69.9269" cy="13.9025" r="0.910274" fill="white"/>
<circle cx="69.9269" cy="26.3601" r="0.910274" fill="white"/>
<circle cx="69.9269" cy="38.8177" r="0.910274" fill="white"/>
<circle cx="69.9269" cy="51.2753" r="0.910274" fill="white"/>
<circle cx="69.9269" cy="63.7328" r="0.910274" fill="white"/>
<circle cx="69.9269" cy="76.1904" r="0.910274" fill="white"/>
<circle cx="69.9269" cy="88.648" r="0.910274" fill="white"/>
<circle cx="69.9269" cy="101.106" r="0.910274" fill="white"/>
<circle cx="69.9269" cy="113.563" r="0.910274" fill="white"/>
<circle cx="69.9269" cy="126.021" r="0.910274" fill="white"/>
<circle cx="87.056" cy="1.44494" r="0.910274" fill="white"/>
<circle cx="87.056" cy="13.9025" r="0.910274" fill="white"/>
<circle cx="87.056" cy="26.3601" r="0.910274" fill="white"/>
<circle cx="87.056" cy="38.8177" r="0.910274" fill="white"/>
<circle cx="87.056" cy="51.2753" r="0.910274" fill="white"/>
<circle cx="87.056" cy="63.7328" r="0.910274" fill="white"/>
<circle cx="87.056" cy="76.1904" r="0.910274" fill="white"/>
<circle cx="87.056" cy="88.648" r="0.910274" fill="white"/>
<circle cx="87.056" cy="101.106" r="0.910274" fill="white"/>
<circle cx="87.056" cy="113.563" r="0.910274" fill="white"/>
<circle cx="87.056" cy="126.021" r="0.910274" fill="white"/>
<circle cx="104.185" cy="1.44494" r="0.910274" fill="white"/>
<circle cx="104.185" cy="13.9025" r="0.910274" fill="white"/>
<circle cx="104.185" cy="26.3601" r="0.910274" fill="white"/>
<circle cx="104.185" cy="38.8177" r="0.910274" fill="white"/>
<circle cx="104.185" cy="51.2753" r="0.910274" fill="white"/>
<circle cx="104.185" cy="63.7328" r="0.910274" fill="white"/>
<circle cx="104.185" cy="76.1904" r="0.910274" fill="white"/>
<circle cx="104.185" cy="88.648" r="0.910274" fill="white"/>
<circle cx="104.185" cy="101.106" r="0.910274" fill="white"/>
<circle cx="104.185" cy="113.563" r="0.910274" fill="white"/>
<circle cx="104.185" cy="126.021" r="0.910274" fill="white"/>
<circle cx="121.314" cy="1.44494" r="0.910274" fill="white"/>
<circle cx="121.314" cy="13.9025" r="0.910274" fill="white"/>
<circle cx="121.314" cy="26.3601" r="0.910274" fill="white"/>
<circle cx="121.314" cy="38.8177" r="0.910274" fill="white"/>
<circle cx="121.314" cy="51.2753" r="0.910274" fill="white"/>
<circle cx="121.314" cy="63.7328" r="0.910274" fill="white"/>
<circle cx="121.314" cy="76.1904" r="0.910274" fill="white"/>
<circle cx="121.314" cy="88.648" r="0.910274" fill="white"/>
<circle cx="121.314" cy="101.106" r="0.910274" fill="white"/>
<circle cx="121.314" cy="113.563" r="0.910274" fill="white"/>
<circle cx="121.314" cy="126.021" r="0.910274" fill="white"/>
<circle cx="138.443" cy="1.44494" r="0.910274" fill="white"/>
<circle cx="138.443" cy="13.9025" r="0.910274" fill="white"/>
<circle cx="138.443" cy="26.3601" r="0.910274" fill="white"/>
<circle cx="138.443" cy="38.8177" r="0.910274" fill="white"/>
<circle cx="138.443" cy="51.2753" r="0.910274" fill="white"/>
<circle cx="138.443" cy="63.7328" r="0.910274" fill="white"/>
<circle cx="138.443" cy="76.1904" r="0.910274" fill="white"/>
<circle cx="138.443" cy="88.648" r="0.910274" fill="white"/>
<circle cx="138.443" cy="101.106" r="0.910274" fill="white"/>
<circle cx="138.443" cy="113.563" r="0.910274" fill="white"/>
<circle cx="138.443" cy="126.021" r="0.910274" fill="white"/>
</svg>
