<svg width="76" height="82" viewBox="0 0 76 82" fill="none" xmlns="http://www.w3.org/2000/svg">
<g opacity="0.2">
<circle cx="1.202" cy="0.664886" r="0.491058" fill="white"/>
<circle cx="1.20175" cy="7.38516" r="0.491058" fill="white"/>
<circle cx="1.20175" cy="14.1055" r="0.491058" fill="white"/>
<circle cx="1.20175" cy="20.826" r="0.491058" fill="white"/>
<circle cx="1.20175" cy="27.5462" r="0.491058" fill="white"/>
<circle cx="1.20175" cy="34.2666" r="0.491058" fill="white"/>
<circle cx="1.20175" cy="40.987" r="0.491058" fill="white"/>
<circle cx="1.20175" cy="47.7073" r="0.491058" fill="white"/>
<circle cx="1.20175" cy="61.148" r="0.491058" fill="white"/>
<circle cx="1.20175" cy="67.8684" r="0.491058" fill="white"/>
<circle cx="1.20175" cy="74.5887" r="0.491058" fill="white"/>
<circle cx="1.20175" cy="81.3091" r="0.491058" fill="white"/>
<circle cx="10.4425" cy="0.664886" r="0.491058" fill="white"/>
<circle cx="10.4425" cy="7.38516" r="0.491058" fill="white"/>
<circle cx="10.4425" cy="27.5462" r="0.491058" fill="white"/>
<circle cx="10.4425" cy="34.2666" r="0.491058" fill="white"/>
<circle cx="10.4425" cy="40.987" r="0.491058" fill="white"/>
<circle cx="10.4425" cy="54.4276" r="0.491058" fill="white"/>
<circle cx="10.4425" cy="61.148" r="0.491058" fill="white"/>
<circle cx="10.4425" cy="74.5887" r="0.491058" fill="white"/>
<circle cx="19.683" cy="0.664886" r="0.491058" fill="white"/>
<circle cx="19.683" cy="7.38516" r="0.491058" fill="white"/>
<circle cx="19.683" cy="14.1055" r="0.491058" fill="white"/>
<circle cx="19.683" cy="20.826" r="0.491058" fill="white"/>
<circle cx="19.683" cy="27.5462" r="0.491058" fill="white"/>
<circle cx="19.683" cy="34.2666" r="0.491058" fill="white"/>
<circle cx="27.9413" cy="34.2666" r="0.491058" fill="white"/>
<circle cx="19.683" cy="40.987" r="0.491058" fill="white"/>
<circle cx="19.683" cy="47.7073" r="0.491058" fill="white"/>
<circle cx="19.683" cy="54.4276" r="0.491058" fill="white"/>
<circle cx="19.683" cy="61.148" r="0.491058" fill="white"/>
<circle cx="19.683" cy="67.8684" r="0.491058" fill="white"/>
<circle cx="19.683" cy="81.3091" r="0.491058" fill="white"/>
<circle cx="28.9234" cy="0.664886" r="0.491058" fill="white"/>
<circle cx="28.9234" cy="7.38516" r="0.491058" fill="white"/>
<circle cx="28.9234" cy="14.1055" r="0.491058" fill="white"/>
<circle cx="28.9234" cy="20.826" r="0.491058" fill="white"/>
<circle cx="28.9234" cy="54.4276" r="0.491058" fill="white"/>
<circle cx="28.9234" cy="61.148" r="0.491058" fill="white"/>
<circle cx="28.9234" cy="67.8684" r="0.491058" fill="white"/>
<circle cx="28.9234" cy="74.5887" r="0.491058" fill="white"/>
<circle cx="38.1642" cy="0.664886" r="0.491058" fill="white"/>
<circle cx="38.1642" cy="7.38516" r="0.491058" fill="white"/>
<circle cx="38.1642" cy="14.1055" r="0.491058" fill="white"/>
<circle cx="38.1639" cy="20.826" r="0.491058" fill="white"/>
<circle cx="38.1639" cy="28.0372" r="0.491058" fill="white"/>
<circle cx="38.1639" cy="67.8684" r="0.491058" fill="white"/>
<circle cx="38.1639" cy="61.1483" r="0.491058" fill="white"/>
<circle cx="38.1639" cy="53.9569" r="0.491058" fill="white"/>
<circle cx="38.1642" cy="74.5887" r="0.491058" fill="white"/>
<circle cx="38.1642" cy="81.3091" r="0.491058" fill="white"/>
<circle cx="47.4041" cy="0.664886" r="0.491058" fill="white"/>
<circle cx="47.4041" cy="7.38516" r="0.491058" fill="white"/>
<circle cx="47.4041" cy="14.1055" r="0.491058" fill="white"/>
<circle cx="47.4041" cy="20.826" r="0.491058" fill="white"/>
<circle cx="47.4041" cy="27.5462" r="0.491058" fill="white"/>
<circle cx="47.4041" cy="61.148" r="0.491058" fill="white"/>
<circle cx="47.4041" cy="67.8684" r="0.491058" fill="white"/>
<circle cx="47.4041" cy="74.5887" r="0.491058" fill="white"/>
<circle cx="47.4041" cy="81.3091" r="0.491058" fill="white"/>
<circle cx="56.6449" cy="0.664886" r="0.491058" fill="white"/>
<circle cx="56.6449" cy="7.38516" r="0.491058" fill="white"/>
<circle cx="56.6449" cy="14.1055" r="0.491058" fill="white"/>
<circle cx="56.6449" cy="20.826" r="0.491058" fill="white"/>
<circle cx="56.6449" cy="27.5462" r="0.491058" fill="white"/>
<circle cx="56.6449" cy="34.2666" r="0.491058" fill="white"/>
<circle cx="56.6449" cy="47.7073" r="0.491058" fill="white"/>
<circle cx="56.6449" cy="54.4276" r="0.491058" fill="white"/>
<circle cx="56.6449" cy="61.148" r="0.491058" fill="white"/>
<circle cx="56.6449" cy="67.8684" r="0.491058" fill="white"/>
<circle cx="56.6449" cy="74.5887" r="0.491058" fill="white"/>
<circle cx="65.8853" cy="0.664886" r="0.491058" fill="white"/>
<circle cx="65.8853" cy="7.38516" r="0.491058" fill="white"/>
<circle cx="65.8853" cy="14.1055" r="0.491058" fill="white"/>
<circle cx="65.8853" cy="20.826" r="0.491058" fill="white"/>
<circle cx="65.8853" cy="27.5462" r="0.491058" fill="white"/>
<circle cx="65.8853" cy="34.2666" r="0.491058" fill="white"/>
<circle cx="65.8853" cy="47.7073" r="0.491058" fill="white"/>
<circle cx="65.8853" cy="54.4276" r="0.491058" fill="white"/>
<circle cx="65.8853" cy="61.148" r="0.491058" fill="white"/>
<circle cx="65.8853" cy="74.5887" r="0.491058" fill="white"/>
<circle cx="65.8853" cy="81.3091" r="0.491058" fill="white"/>
<circle cx="75.1258" cy="0.664886" r="0.491058" fill="white"/>
<circle cx="75.1258" cy="7.38516" r="0.491058" fill="white"/>
<circle cx="75.1258" cy="14.1055" r="0.491058" fill="white"/>
<circle cx="75.1258" cy="20.826" r="0.491058" fill="white"/>
<circle cx="75.1258" cy="27.5462" r="0.491058" fill="white"/>
<circle cx="75.1258" cy="34.2666" r="0.491058" fill="white"/>
<circle cx="75.1258" cy="40.987" r="0.491058" fill="white"/>
<circle cx="75.1258" cy="47.7073" r="0.491058" fill="white"/>
<circle cx="75.1258" cy="54.4276" r="0.491058" fill="white"/>
<circle cx="75.1258" cy="61.148" r="0.491058" fill="white"/>
<circle cx="75.1258" cy="67.8684" r="0.491058" fill="white"/>
<circle cx="75.1258" cy="74.5887" r="0.491058" fill="white"/>
<circle cx="75.1258" cy="81.3091" r="0.491058" fill="white"/>
</g>
</svg>
